<?xml version="1.0" standalone="no"?><!DOCTYPE svg PUBLIC "-//W3C//DTD SVG 1.1//EN" "http://www.w3.org/Graphics/SVG/1.1/DTD/svg11.dtd"><svg t="1687833761822" class="icon" viewBox="0 0 1024 1024" version="1.1" xmlns="http://www.w3.org/2000/svg" p-id="30854" xmlns:xlink="http://www.w3.org/1999/xlink" width="200" height="200"><path d="M512 32C246.4 32 32 246.4 32 512s214.4 480 480 480 480-214.4 480-480S777.6 32 512 32z m0 896C281.6 928 96 742.4 96 512S281.6 96 512 96s416 185.6 416 416-185.6 416-416 416z" p-id="30855" fill="#fb5958"></path><path d="M540.8 604.8h160v-217.6h-160v-25.6h201.6V300.8h-201.6V259.2h-67.2v44.8H278.4v57.6h198.4v25.6H320v217.6h156.8v28.8H265.6v57.6h211.2v73.6H544v-73.6h217.6v-57.6H544v-28.8z m0-166.4h96v32h-96v-32z m0 83.2h96v32h-96v-32z m-64 32h-96v-32h96v32z m0-83.2h-96v-32h96v32z" p-id="30856" fill="#fb5958"></path></svg>