<?xml version="1.0" standalone="no"?><!DOCTYPE svg PUBLIC "-//W3C//DTD SVG 1.1//EN" "http://www.w3.org/Graphics/SVG/1.1/DTD/svg11.dtd"><svg t="1687833664336" class="icon" viewBox="0 0 1024 1024" version="1.1" xmlns="http://www.w3.org/2000/svg" p-id="18116" xmlns:xlink="http://www.w3.org/1999/xlink" width="200" height="200"><path d="M512 64C264.6 64 64 264.5 64 512s200.6 448 448 448 448-200.5 448-448S759.4 64 512 64z m0 812.2c-200.8 0-364.3-163.4-364.3-364.2S311.2 147.8 512 147.8 876.3 311.2 876.3 512 712.8 876.2 512 876.2z" p-id="18117" fill="#fb5958"></path><path d="M426.1 411.5c-5.9 0-8.8 2.6-8.8 7.8 0 7 2.9 11.3 8.8 13.1h70.5c13.2-6.9 16.8-15.7 11-26-19.1 1.6-46.3 3.3-81.5 5.1z m136.5 20.9c13.3-1.7 33.8-1.7 61.7 0h17.6c13.2-8.6 13.2-19 0-31.4-27.9-3.4-52.9-3.4-74.9 0-14.7 14-16.2 24.5-4.4 31.4zM523 343.6c-32.3 3.5-60.2 13.1-83.7 28.7-3 7.1 22.7 6.2 77.1-2.7h2.2c5.9-5.1 10.3-12 13.2-20.8 0-3.4-3-5.2-8.8-5.2z m110.1 114.9c-27.9-3.5-55.8-3.5-83.7 0-13.2 1.7-17.6 5.1-13.2 10.5 8.8 8.6 24.9 19.1 48.5 31.2 10.2 3.6 23.4-1.6 39.6-15.6 17.6-13.9 20.5-22.6 8.8-26.1z" p-id="18118" fill="#fb5958"></path><path d="M512 164.5c-191.6 0-347.5 155.9-347.5 347.5S320.4 859.5 512 859.5 859.5 703.6 859.5 512 703.6 164.5 512 164.5z m231.2 495c-27.9 14-51.4 7-70.4-20.9-39.7-55.8-70.5-89.6-92.5-101.8V589c-1.5 52.2-16.2 87.1-44 104.4-36.7 17.4-65.3 2.6-85.9-44.5-1.5-8.6-0.8-11.3 2.2-7.8 16.2 7 27.9 10.4 35.3 10.4 24.9-5.1 36.6-25.1 35.2-60-2.9-1.7-5.1-2.6-6.6-2.6C418 651.6 343.9 683 294 683c-23.5-1.6-36.7-15.6-39.7-41.8 0-3.5 1.4-5.1 4.4-5.1 39.6 0 89.5-10.5 149.7-31.4 38.2-13.9 74.9-33 110.1-57.5 1.5-12.1 0-19-4.4-20.8-1.5 1.7-6.6 5.2-15.4 10.5-6 3.4-11 6.9-15.4 10.3-39.7 28-74.9 41.9-105.7 41.9-13.3-1.8-19.1-10.5-17.7-26.1 63.1-13.9 108.7-34.8 136.6-62.8 0-5.1-3-6.9-8.8-5.1-63.2 34.8-111.6 50.5-145.3 47-16.2-3.5-25-13.9-26.5-31.4 0-5.2 1.5-6.9 4.4-5.2 55.8 3.6 105.7-7.8 149.8-33.9 5.9-3.5 8.1-6.2 6.6-7.9-1.5-3.4-5.2-5.1-11-5.1-17.6 1.7-36.7 6.9-57.3 15.6-17.6 7-30 1.8-37.4-15.6-1.5-5.2-2.3-19.1-2.3-41.9 1.4-6.9 0-10.3-4.4-10.3-55.8 13.9-85.9 2.6-90.3-34.1-1.4-10.4 0-14.7 4.4-13.1 93.9-5.2 175.4-27.8 244.4-67.9 11.7 1.9 13.2 10.5 4.4 26.1-2.9 3.5 0 5.4 8.9 5.4 11.7 1.6 24.9 0.8 39.7-2.7 13.2-6.9 22-4.3 26.4 7.8 7.4 14 7.4 22.6 0 26-1.5 0-4.4 0.9-8.8 2.7-13.2 5.2-22 8.7-26.4 10.4-3 1.9-2.2 3.6 2.2 5.2 13.2 0 37.4 0.9 72.7 2.7h19.8c1.4 0 4.4-0.9 8.9-2.7 16.2-5.2 25.7 0 28.6 15.7 1.4 5.1 1.4 13.9 0 26V427c-1.4 14-4.4 24.5-8.8 31.4-5.9 6.9-16.9 6.9-33 0v5.1c8.8 7.1 12.5 14 11 20.9 1.5 19.2-16.2 27.9-52.8 26.1 7.3 22.7 32.3 42.7 74.9 60.1 23.5 10.4 57.3 19.2 101.3 26.1 4.4 0 5.9 2.6 4.4 7.8-9 26.3-26.6 44.6-53 55z" p-id="18119" fill="#fb5958"></path></svg>