<svg xmlns="http://www.w3.org/2000/svg" fill="none" viewBox="0 0 48 48"><path stroke-linejoin="round" stroke-linecap="round" stroke-width="4" stroke="#4a90e2" d="M17 4H7a3 3 0 0 0-3 3v34a3 3 0 0 0 3 3h34a3 3 0 0 0 3-3V7a3 3 0 0 0-3-3H17ZM23 17h21M4 17h9M35 31h9M6 31h19M17 21v23M31 4v23M31 35v9M17 4v9" data-follow-stroke="#4a90e2"/><path stroke-linejoin="round" stroke-linecap="round" stroke-width="4" stroke="#4a90e2" fill="#4a90e2" d="M35 31a4 4 0 1 1-8 0 4 4 0 0 1 8 0ZM21 17a4 4 0 1 1-8 0 4 4 0 0 1 8 0Z" data-follow-fill="#4a90e2" data-follow-stroke="#4a90e2"/></svg>