<svg xmlns="http://www.w3.org/2000/svg" fill="none" viewBox="0 0 48 48"><path stroke-linejoin="round" stroke-linecap="round" stroke-width="4" stroke="#fc0" d="m20.07 9.586-4.242-4.243a2 2 0 0 0-2.828 0L7.343 11a2 2 0 0 0 0 2.829l4.243 4.242M28.929 37.414l4.242 4.243a2 2 0 0 0 2.829 0L41.657 36a2 2 0 0 0 0-2.828l-4.243-4.243"/><rect stroke-linejoin="round" stroke-linecap="round" stroke-width="4" stroke="#fc0" fill="#fc0" transform="rotate(45 34.606 4.908)" rx="2" height="42" width="12" y="4.908" x="34.606"/><circle fill="#FFF" r="2" cy="24" cx="24"/><circle fill="#FFF" r="2" cy="28" cx="20"/><circle fill="#FFF" r="2" cy="20" cx="28"/></svg>